<?xml version="1.0" encoding="iso-8859-1"?>
<!-- Generator: Adobe Illustrator 16.0.0, SVG Export Plug-In . SVG Version: 6.00 Build 0)  -->
<!DOCTYPE svg PUBLIC "-//W3C//DTD SVG 1.1//EN" "http://www.w3.org/Graphics/SVG/1.1/DTD/svg11.dtd">
<svg version="1.1" id="Capa_1" xmlns="http://www.w3.org/2000/svg" xmlns:xlink="http://www.w3.org/1999/xlink" fill="rgba(155, 80, 188, 1)" x="0px" y="0px"
	 width="591.918px" height="591.919px" viewBox="0 0 591.918 591.919" style="enable-background:new 0 0 591.918 591.919;"
	 xml:space="preserve">
<g>
	<g>
		<path d="M545.444,166.622c-20.807,33.486-55.405,71.874-87.242,103.879h0.018c0,0-0.345,0.322-0.563,0.563
			c-2.162,2.181-4.307,4.312-6.469,6.433c-21.043,21.02-84.989,85.643-117.371,126.761l-0.019,0.037
			c-11.176,14.474-22.319,28.788-32.623,41.617c-12.92,15.592-65.836,74.704-121.755,67.872
			c-23.551-2.617-98.491-14.556-134.367-63.456c-1.276-1.871-2.467-3.798-3.675-5.761c-21.774-34.021,5.17-52.421,11.507-56.101
			c2.222-1.117,4.493-2.181,7.219-2.953c2.512-0.745,4.802-1.408,7.092-2.099c0.159-0.036,0.268-0.072,0.445-0.136
			c27.467-8.313,52.408,4.679,52.408,4.679v-0.082c48.809,22.497,80.387,19.599,86.084,18.817
			c23.201-2.308,90.428-23.224,199.117-171.206c0,0-0.018,0-0.018,0.009c37.561-42.881,79.374-92.322,103.633-121.229
			c0.055-0.032,0.073-0.05,0.073-0.068c18.826-22.337,30.602-14.401,34.362-10.653c1.436,1.826,2.89,3.693,4.271,5.724
			C547.57,109.28,562.67,139.323,545.444,166.622L545.444,166.622z M542.373,48.814c-0.345-0.259-17.917-13.079-31.128,3.834
			c-42.268,54.279-182.754,232.831-250.775,296.078c-59.44,55.206-111.661,23.75-135.089,3.38l-0.009,0.036
			c0,0-12.012-12.475-39.515-3.907c-0.045,0.037-0.063,0.037-0.109,0.037c-11.158,3.652-26.331,8.341-46.783,14.273
			C9.976,370.949,0.968,392.737,0,413.635c0.291,3.644,1.472,14.251,5.042,26.463c0.7,1.672,12.348,28.911,33.618,47.919
			c3.802,2.998,7.6,6.015,11.825,8.959c0.127,0.072,0.223,0.163,0.35,0.218c0.068,0.036,0.077,0.072,0.15,0.146
			c34.163,23.623,81.673,43.993,131.309,49.281c17.481,1.872,31.828,1.581,43.758,0.128c27.494-3.198,57.205-32.491,74.577-52.535
			c4.625-5.724,9.694-12.048,15.019-18.698h0.019c8.481-10.54,17.677-21.97,26.999-33.545
			c39.269-48.833,109.739-122.792,110.538-123.664c7.741-5.905,14.556-9.79,18.645-9.268c8.868,1.245,19.008,7.433,20.316,29.021
			l11.121,190.1l0.055,2.453c0,0,0,0.036,0,0.072l0.108,3.471c0.473,5.07,2.763,13.829,13.466,13.848
			c10.03-0.183,11.339-11.395,11.448-15.955v-1.927c4.052-49.627,21.86-234.088,38.306-267.738
			C622.583,134.371,572.484,72.482,542.373,48.814L542.373,48.814z"/>
	</g>
</g>
<g>
</g>
<g>
</g>
<g>
</g>
<g>
</g>
<g>
</g>
<g>
</g>
<g>
</g>
<g>
</g>
<g>
</g>
<g>
</g>
<g>
</g>
<g>
</g>
<g>
</g>
<g>
</g>
<g>
</g>
</svg>
