<svg width="270" height="80" viewBox="0 0 270 80" fill="none" xmlns="http://www.w3.org/2000/svg">
<rect width="270" height="80" fill="#9B50BC"/>
<path d="M53.9761 37.9738C54.4241 37.9311 54.7921 37.7978 55.0801 37.5738C55.3788 37.3604 55.6028 36.9978 55.7521 36.4858C55.9121 35.9844 55.9921 35.2964 55.9921 34.4218V25.6538C55.9921 25.2484 55.9601 24.9551 55.8961 24.7738C55.8428 24.5924 55.7308 24.4698 55.5601 24.4058C55.4001 24.3418 55.1441 24.2991 54.7921 24.2778V23.9578C55.3254 23.9898 56.1308 24.0058 57.2081 24.0058C58.3068 24.0058 59.1494 23.9898 59.7361 23.9578V24.2778C59.3734 24.2991 59.1121 24.3418 58.9521 24.4058C58.7921 24.4698 58.6801 24.5924 58.6161 24.7738C58.5628 24.9551 58.5361 25.2484 58.5361 25.6538V31.5098V32.4858C58.5361 33.9898 58.4454 35.0564 58.2641 35.6858C58.0401 36.4644 57.5601 37.0938 56.8241 37.5738C56.0988 38.0538 55.1494 38.2938 53.9761 38.2938V37.9738ZM72.1882 24.2778C71.8362 24.3311 71.5749 24.4218 71.4042 24.5498C71.2442 24.6778 71.1322 24.8804 71.0682 25.1578C71.0149 25.4351 70.9882 25.8458 70.9882 26.3898V30.6298C70.9882 32.1551 70.7696 33.2858 70.3322 34.0218C70.0442 34.4911 69.6282 34.8591 69.0842 35.1258C68.5402 35.3818 67.8736 35.5098 67.0842 35.5098C65.8469 35.5098 64.8869 35.2431 64.2042 34.7098C63.7136 34.3151 63.3829 33.8191 63.2122 33.2218C63.0416 32.6138 62.9562 31.7658 62.9562 30.6778V25.6538C62.9562 25.2484 62.9242 24.9551 62.8602 24.7738C62.8069 24.5924 62.6949 24.4698 62.5242 24.4058C62.3642 24.3418 62.1082 24.2991 61.7562 24.2778V23.9578C62.3002 23.9898 63.1322 24.0058 64.2522 24.0058C65.3616 24.0058 66.2096 23.9898 66.7962 23.9578V24.2778C66.4122 24.2991 66.1296 24.3418 65.9482 24.4058C65.7776 24.4698 65.6602 24.5924 65.5962 24.7738C65.5322 24.9551 65.5002 25.2484 65.5002 25.6538V31.6858C65.5002 32.8058 65.6602 33.6324 65.9802 34.1658C66.3109 34.6884 66.8869 34.9498 67.7082 34.9498C68.7749 34.9498 69.5269 34.5924 69.9642 33.8778C70.4016 33.1524 70.6202 32.1284 70.6202 30.8058V26.5818C70.6202 25.9631 70.5829 25.5044 70.5082 25.2058C70.4336 24.9071 70.2896 24.6938 70.0762 24.5658C69.8629 24.4271 69.5269 24.3311 69.0682 24.2778V23.9578C69.4736 23.9898 70.0496 24.0058 70.7962 24.0058C71.3936 24.0058 71.8576 23.9898 72.1882 23.9578V24.2778ZM79.3475 24.2778C78.9635 24.2991 78.6808 24.3418 78.4995 24.4058C78.3288 24.4698 78.2115 24.5924 78.1475 24.7738C78.0835 24.9551 78.0515 25.2484 78.0515 25.6538V33.7818C78.0515 34.1231 78.0782 34.3738 78.1315 34.5338C78.1848 34.6831 78.2755 34.7844 78.4035 34.8378C78.5422 34.8911 78.7608 34.9178 79.0595 34.9178H79.8435C80.5688 34.9178 81.1928 34.5924 81.7155 33.9418C82.2488 33.2911 82.5955 32.4271 82.7555 31.3498H83.1235C83.0915 31.7124 83.0755 32.1818 83.0755 32.7578C83.0755 33.7818 83.1128 34.6244 83.1875 35.2858C82.4622 35.2538 81.2408 35.2378 79.5235 35.2378C77.1982 35.2378 75.4595 35.2538 74.3075 35.2858V34.9658C74.6595 34.9444 74.9155 34.9018 75.0755 34.8378C75.2462 34.7738 75.3582 34.6511 75.4115 34.4698C75.4755 34.2884 75.5075 33.9951 75.5075 33.5898V25.6538C75.5075 25.2484 75.4755 24.9551 75.4115 24.7738C75.3582 24.5924 75.2462 24.4698 75.0755 24.4058C74.9155 24.3418 74.6595 24.2991 74.3075 24.2778V23.9578C74.8515 23.9898 75.6942 24.0058 76.8355 24.0058C77.9235 24.0058 78.7608 23.9898 79.3475 23.9578V24.2778ZM90.3127 24.2778C89.9501 24.2991 89.6887 24.3418 89.5287 24.4058C89.3687 24.4698 89.2567 24.5924 89.1927 24.7738C89.1394 24.9551 89.1127 25.2484 89.1127 25.6538V33.5898C89.1127 33.9951 89.1394 34.2884 89.1927 34.4698C89.2567 34.6511 89.3687 34.7738 89.5287 34.8378C89.6887 34.9018 89.9501 34.9444 90.3127 34.9658V35.2858C89.7367 35.2538 88.9314 35.2378 87.8967 35.2378C86.7554 35.2378 85.9127 35.2538 85.3687 35.2858V34.9658C85.7207 34.9444 85.9767 34.9018 86.1367 34.8378C86.3074 34.7738 86.4194 34.6511 86.4727 34.4698C86.5367 34.2884 86.5687 33.9951 86.5687 33.5898V25.6538C86.5687 25.2484 86.5367 24.9551 86.4727 24.7738C86.4194 24.5924 86.3074 24.4698 86.1367 24.4058C85.9767 24.3418 85.7207 24.2991 85.3687 24.2778V23.9578C85.9127 23.9898 86.7554 24.0058 87.8967 24.0058C88.9314 24.0058 89.7367 23.9898 90.3127 23.9578V24.2778ZM101.896 33.9418C102.035 34.2938 102.195 34.5498 102.376 34.7098C102.558 34.8698 102.734 34.9551 102.904 34.9658V35.2858C102.264 35.2538 101.454 35.2378 100.472 35.2378C99.3844 35.2378 98.5737 35.2538 98.0404 35.2858V34.9658C98.4457 34.9444 98.7337 34.8964 98.9044 34.8218C99.075 34.7364 99.1604 34.5924 99.1604 34.3898C99.1604 34.1978 99.0964 33.9418 98.9684 33.6218L98.0084 30.9978H94.5204L94.1044 32.1018C93.8057 32.8698 93.6564 33.4618 93.6564 33.8778C93.6564 34.2724 93.7737 34.5498 94.0084 34.7098C94.2537 34.8591 94.611 34.9444 95.0804 34.9658V35.2858C94.355 35.2538 93.6937 35.2378 93.0964 35.2378C92.6057 35.2378 92.2004 35.2538 91.8804 35.2858V34.9658C92.403 34.8698 92.8617 34.3098 93.2564 33.2858L96.9044 23.9258C97.0217 23.9364 97.2084 23.9418 97.4644 23.9418C97.7204 23.9418 97.9017 23.9364 98.0084 23.9258L101.896 33.9418ZM97.8964 30.6778L96.3124 26.3578L94.6484 30.6778H97.8964ZM117.999 24.2778L112.527 34.9178H114.191C115.023 34.9178 115.759 34.6404 116.399 34.0858C117.049 33.5311 117.439 32.6511 117.567 31.4458H117.935C117.903 31.8084 117.887 32.2778 117.887 32.8538C117.887 33.8351 117.924 34.6458 117.999 35.2858C117.209 35.2538 115.881 35.2378 114.015 35.2378C112.031 35.2378 110.596 35.2538 109.711 35.2858V34.9658L115.199 24.3258H113.471C112.596 24.3258 111.876 24.5764 111.311 25.0778C110.756 25.5791 110.409 26.4218 110.271 27.6058H109.903C109.935 27.2964 109.951 26.8911 109.951 26.3898C109.951 25.6751 109.913 24.8644 109.839 23.9578C110.543 23.9898 111.743 24.0058 113.439 24.0058C115.54 24.0058 117.06 23.9898 117.999 23.9578V24.2778ZM132.264 24.2778C131.901 24.2991 131.64 24.3418 131.48 24.4058C131.32 24.4698 131.208 24.5924 131.144 24.7738C131.09 24.9551 131.064 25.2484 131.064 25.6538V33.5898C131.064 33.9951 131.09 34.2884 131.144 34.4698C131.208 34.6511 131.32 34.7738 131.48 34.8378C131.64 34.9018 131.901 34.9444 132.264 34.9658V35.2858C131.741 35.2538 130.93 35.2378 129.832 35.2378C128.754 35.2378 127.917 35.2538 127.32 35.2858V34.9658C127.672 34.9444 127.928 34.9018 128.088 34.8378C128.258 34.7738 128.37 34.6511 128.424 34.4698C128.488 34.2884 128.52 33.9951 128.52 33.5898V29.7498H124.28V33.5898C124.28 33.9951 124.306 34.2884 124.36 34.4698C124.424 34.6511 124.536 34.7738 124.696 34.8378C124.856 34.9018 125.117 34.9444 125.48 34.9658V35.2858C124.904 35.2538 124.098 35.2378 123.064 35.2378C121.922 35.2378 121.08 35.2538 120.536 35.2858V34.9658C120.888 34.9444 121.144 34.9018 121.304 34.8378C121.474 34.7738 121.586 34.6511 121.64 34.4698C121.704 34.2884 121.736 33.9951 121.736 33.5898V25.6538C121.736 25.2484 121.704 24.9551 121.64 24.7738C121.586 24.5924 121.474 24.4698 121.304 24.4058C121.144 24.3418 120.888 24.2991 120.536 24.2778V23.9578C121.08 23.9898 121.922 24.0058 123.064 24.0058C124.098 24.0058 124.904 23.9898 125.48 23.9578V24.2778C125.117 24.2991 124.856 24.3418 124.696 24.4058C124.536 24.4698 124.424 24.5924 124.36 24.7738C124.306 24.9551 124.28 25.2484 124.28 25.6538V29.4298H128.52V25.6538C128.52 25.2484 128.488 24.9551 128.424 24.7738C128.37 24.5924 128.258 24.4698 128.088 24.4058C127.928 24.3418 127.672 24.2991 127.32 24.2778V23.9578C127.917 23.9898 128.754 24.0058 129.832 24.0058C130.93 24.0058 131.741 23.9898 132.264 23.9578V24.2778ZM143.844 33.9418C143.983 34.2938 144.143 34.5498 144.324 34.7098C144.506 34.8698 144.682 34.9551 144.852 34.9658V35.2858C144.212 35.2538 143.402 35.2378 142.42 35.2378C141.332 35.2378 140.522 35.2538 139.988 35.2858V34.9658C140.394 34.9444 140.682 34.8964 140.852 34.8218C141.023 34.7364 141.108 34.5924 141.108 34.3898C141.108 34.1978 141.044 33.9418 140.916 33.6218L139.956 30.9978H136.468L136.052 32.1018C135.754 32.8698 135.604 33.4618 135.604 33.8778C135.604 34.2724 135.722 34.5498 135.956 34.7098C136.202 34.8591 136.559 34.9444 137.028 34.9658V35.2858C136.303 35.2538 135.642 35.2378 135.044 35.2378C134.554 35.2378 134.148 35.2538 133.828 35.2858V34.9658C134.351 34.8698 134.81 34.3098 135.204 33.2858L138.852 23.9258C138.97 23.9364 139.156 23.9418 139.412 23.9418C139.668 23.9418 139.85 23.9364 139.956 23.9258L143.844 33.9418ZM139.844 30.6778L138.26 26.3578L136.596 30.6778H139.844ZM157.1 34.5818C156.812 34.9124 156.503 35.1471 156.172 35.2858C155.841 35.4351 155.441 35.5098 154.972 35.5098C154.353 35.5098 153.863 35.3818 153.5 35.1258C153.148 34.8591 152.919 34.4111 152.812 33.7818L152.524 32.1818C152.385 31.4031 152.215 30.8324 152.012 30.4698C151.82 30.0964 151.495 29.9098 151.036 29.9098H149.996V33.5898C149.996 33.9951 150.023 34.2884 150.076 34.4698C150.14 34.6511 150.252 34.7738 150.412 34.8378C150.572 34.9018 150.833 34.9444 151.196 34.9658V35.2858C150.62 35.2538 149.815 35.2378 148.78 35.2378C147.639 35.2378 146.796 35.2538 146.252 35.2858V34.9658C146.604 34.9444 146.86 34.9018 147.02 34.8378C147.191 34.7738 147.303 34.6511 147.356 34.4698C147.42 34.2884 147.452 33.9951 147.452 33.5898V25.6538C147.452 25.2484 147.42 24.9551 147.356 24.7738C147.303 24.5924 147.191 24.4698 147.02 24.4058C146.86 24.3418 146.604 24.2991 146.252 24.2778V23.9578C146.796 23.9898 147.607 24.0058 148.684 24.0058L150.46 23.9898C150.673 23.9791 150.919 23.9738 151.196 23.9738C152.668 23.9738 153.772 24.2138 154.508 24.6938C155.255 25.1738 155.628 25.8618 155.628 26.7578C155.628 27.5151 155.351 28.1818 154.796 28.7578C154.241 29.3338 153.324 29.6964 152.044 29.8458C153.004 29.9311 153.719 30.1391 154.188 30.4698C154.657 30.8004 154.961 31.2964 155.1 31.9578L155.468 33.6058C155.553 34.0324 155.649 34.3311 155.756 34.5018C155.873 34.6724 156.033 34.7578 156.236 34.7578C156.364 34.7471 156.471 34.7151 156.556 34.6618C156.652 34.6084 156.759 34.5178 156.876 34.3898L157.1 34.5818ZM150.988 24.2778C150.7 24.2778 150.487 24.3151 150.348 24.3898C150.22 24.4644 150.129 24.5978 150.076 24.7898C150.023 24.9818 149.996 25.2698 149.996 25.6538V29.5898H150.684C151.559 29.5898 152.156 29.3604 152.476 28.9018C152.807 28.4324 152.972 27.7764 152.972 26.9338C152.972 26.0591 152.817 25.3978 152.508 24.9498C152.199 24.5018 151.692 24.2778 150.988 24.2778ZM166.128 23.9898C166.619 23.9898 167.024 23.9738 167.344 23.9418V24.2618C166.854 24.4644 166.342 25.0831 165.808 26.1178L163.92 29.8618V33.5898C163.92 33.9951 163.947 34.2884 164 34.4698C164.064 34.6511 164.176 34.7738 164.336 34.8378C164.496 34.9018 164.758 34.9444 165.12 34.9658V35.2858C164.544 35.2538 163.723 35.2378 162.656 35.2378C161.515 35.2378 160.688 35.2538 160.176 35.2858V34.9658C160.528 34.9444 160.784 34.9018 160.944 34.8378C161.115 34.7738 161.227 34.6511 161.28 34.4698C161.344 34.2884 161.376 33.9951 161.376 33.5898V30.8858L158.288 25.1738C157.958 24.5764 157.648 24.2778 157.36 24.2778V23.9418C157.83 23.9951 158.459 24.0218 159.248 24.0218C160.24 24.0218 161.243 23.9951 162.256 23.9418V24.2778C161.883 24.2778 161.584 24.3151 161.36 24.3898C161.147 24.4538 161.04 24.5764 161.04 24.7578C161.04 24.8538 161.078 24.9711 161.152 25.1098L163.584 29.7978L164.832 27.3018C165.248 26.4591 165.456 25.7978 165.456 25.3178C165.456 24.9551 165.339 24.6938 165.104 24.5338C164.88 24.3738 164.555 24.2831 164.128 24.2618V23.9418C164.854 23.9738 165.52 23.9898 166.128 23.9898ZM179.153 33.9898C179.313 34.2351 179.478 34.4324 179.649 34.5818C179.82 34.7311 180.038 34.8591 180.305 34.9658V35.2858C179.558 35.2538 178.726 35.2378 177.809 35.2378C177.105 35.2378 176.428 35.2538 175.777 35.2858V34.9658C176.076 34.9444 176.289 34.9124 176.417 34.8698C176.556 34.8271 176.625 34.7524 176.625 34.6458C176.625 34.5604 176.566 34.4271 176.449 34.2458L174.129 30.4858C173.916 30.1444 173.734 29.9151 173.585 29.7978C173.446 29.6804 173.254 29.6111 173.009 29.5898V33.5898C173.009 33.9951 173.036 34.2884 173.089 34.4698C173.153 34.6511 173.265 34.7738 173.425 34.8378C173.585 34.9018 173.846 34.9444 174.209 34.9658V35.2858C173.633 35.2538 172.828 35.2378 171.793 35.2378C170.652 35.2378 169.809 35.2538 169.265 35.2858V34.9658C169.617 34.9444 169.873 34.9018 170.033 34.8378C170.204 34.7738 170.316 34.6511 170.369 34.4698C170.433 34.2884 170.465 33.9951 170.465 33.5898V25.6538C170.465 25.2484 170.433 24.9551 170.369 24.7738C170.316 24.5924 170.204 24.4698 170.033 24.4058C169.873 24.3418 169.617 24.2991 169.265 24.2778V23.9578C169.809 23.9898 170.652 24.0058 171.793 24.0058C172.828 24.0058 173.633 23.9898 174.209 23.9578V24.2778C173.846 24.2991 173.585 24.3418 173.425 24.4058C173.265 24.4698 173.153 24.5924 173.089 24.7738C173.036 24.9551 173.009 25.2484 173.009 25.6538V29.2538C173.436 29.2324 173.825 29.1044 174.177 28.8698C174.529 28.6351 174.929 28.2618 175.377 27.7498L176.321 26.6138C176.812 26.0484 177.057 25.5524 177.057 25.1258C177.057 24.8698 176.95 24.6671 176.737 24.5178C176.534 24.3684 176.246 24.2831 175.873 24.2618V23.9578C176.652 23.9898 177.441 24.0058 178.241 24.0058C178.86 24.0058 179.361 23.9898 179.745 23.9578V24.2618C178.892 24.4644 178.118 24.9764 177.425 25.7978L175.425 28.1818L179.153 33.9898ZM187.119 23.7338C188.249 23.7338 189.236 23.9631 190.079 24.4218C190.932 24.8804 191.593 25.5471 192.063 26.4218C192.532 27.2858 192.767 28.3204 192.767 29.5258C192.767 30.6991 192.527 31.7391 192.047 32.6458C191.567 33.5524 190.895 34.2564 190.031 34.7578C189.177 35.2591 188.201 35.5098 187.103 35.5098C185.972 35.5098 184.98 35.2804 184.127 34.8218C183.284 34.3631 182.628 33.7018 182.159 32.8378C181.689 31.9631 181.455 30.9231 181.455 29.7178C181.455 28.5444 181.695 27.5044 182.175 26.5978C182.655 25.6911 183.321 24.9871 184.175 24.4858C185.039 23.9844 186.02 23.7338 187.119 23.7338ZM187.055 24.0218C186.468 24.0218 185.951 24.2618 185.503 24.7418C185.055 25.2111 184.708 25.8724 184.463 26.7258C184.228 27.5791 184.111 28.5551 184.111 29.6538C184.111 30.7631 184.244 31.7391 184.511 32.5818C184.788 33.4244 185.156 34.0751 185.615 34.5338C186.084 34.9924 186.601 35.2218 187.167 35.2218C187.753 35.2218 188.271 34.9871 188.719 34.5178C189.167 34.0378 189.508 33.3711 189.743 32.5178C189.988 31.6644 190.111 30.6884 190.111 29.5898C190.111 28.4804 189.972 27.5044 189.695 26.6618C189.428 25.8191 189.06 25.1684 188.591 24.7098C188.132 24.2511 187.62 24.0218 187.055 24.0218ZM204.007 24.0058C204.497 24.0058 204.903 23.9898 205.223 23.9578V24.2778C204.956 24.3738 204.695 24.5764 204.439 24.8858C204.183 25.1951 203.953 25.6271 203.751 26.1818L200.375 35.3178C200.257 35.3071 200.071 35.3018 199.815 35.3018C199.569 35.3018 199.388 35.3071 199.271 35.3178L195.191 25.3018C195.052 24.9498 194.892 24.6938 194.711 24.5338C194.529 24.3738 194.353 24.2884 194.183 24.2778V23.9578C194.823 23.9898 195.633 24.0058 196.615 24.0058C197.713 24.0058 198.524 23.9898 199.047 23.9578V24.2778C198.641 24.2991 198.353 24.3471 198.183 24.4218C198.012 24.4964 197.927 24.6458 197.927 24.8698C197.927 25.0511 197.991 25.3018 198.119 25.6218L200.935 32.7898L202.903 27.4778C203.201 26.6564 203.351 26.0058 203.351 25.5258C203.351 25.0991 203.233 24.7898 202.999 24.5978C202.775 24.4058 202.444 24.2991 202.007 24.2778V23.9578C202.732 23.9898 203.399 24.0058 204.007 24.0058ZM214.931 33.9418C215.069 34.2938 215.229 34.5498 215.411 34.7098C215.592 34.8698 215.768 34.9551 215.939 34.9658V35.2858C215.299 35.2538 214.488 35.2378 213.507 35.2378C212.419 35.2378 211.608 35.2538 211.075 35.2858V34.9658C211.48 34.9444 211.768 34.8964 211.939 34.8218C212.109 34.7364 212.195 34.5924 212.195 34.3898C212.195 34.1978 212.131 33.9418 212.003 33.6218L211.043 30.9978H207.555L207.139 32.1018C206.84 32.8698 206.691 33.4618 206.691 33.8778C206.691 34.2724 206.808 34.5498 207.043 34.7098C207.288 34.8591 207.645 34.9444 208.115 34.9658V35.2858C207.389 35.2538 206.728 35.2378 206.131 35.2378C205.64 35.2378 205.235 35.2538 204.915 35.2858V34.9658C205.437 34.8698 205.896 34.3098 206.291 33.2858L209.939 23.9258C210.056 23.9364 210.243 23.9418 210.499 23.9418C210.755 23.9418 210.936 23.9364 211.043 23.9258L214.931 33.9418ZM210.931 30.6778L209.347 26.3578L207.683 30.6778H210.931Z" fill="white"/>
<path d="M97.5332 52.14V53.94C97.5332 54.1933 97.5599 54.3767 97.6132 54.49C97.6665 54.6033 97.7599 54.68 97.8932 54.72C98.0265 54.76 98.2432 54.7867 98.5432 54.8V55C98.1965 54.98 97.7065 54.97 97.0732 54.97C96.4999 54.97 96.0732 54.98 95.7932 55V54.8C96.0332 54.7867 96.2065 54.76 96.3132 54.72C96.4265 54.68 96.5032 54.6033 96.5432 54.49C96.5832 54.3767 96.6032 54.1933 96.6032 53.94V48.98C96.6032 48.7267 96.5832 48.5433 96.5432 48.43C96.5032 48.3167 96.4265 48.24 96.3132 48.2C96.2065 48.16 96.0332 48.1333 95.7932 48.12V47.92C96.0732 47.94 96.4799 47.95 97.0132 47.95L98.0932 47.94C98.2199 47.9333 98.3632 47.93 98.5232 47.93C99.3032 47.93 99.8999 48.11 100.313 48.47C100.727 48.8233 100.933 49.3 100.933 49.9C100.933 50.2667 100.85 50.62 100.683 50.96C100.523 51.2933 100.247 51.5733 99.8532 51.8C99.4665 52.0267 98.9499 52.14 98.3032 52.14H97.5332ZM98.2732 48.12C98.0665 48.12 97.9099 48.1433 97.8032 48.19C97.7032 48.2367 97.6332 48.32 97.5932 48.44C97.5532 48.56 97.5332 48.74 97.5332 48.98V51.94H98.2032C98.8565 51.94 99.3065 51.7667 99.5532 51.42C99.8065 51.0667 99.9332 50.5967 99.9332 50.01C99.9332 49.3633 99.8032 48.8867 99.5432 48.58C99.2899 48.2733 98.8665 48.12 98.2732 48.12ZM106.545 53.8C106.425 54.1667 106.199 54.4833 105.865 54.75C105.539 55.01 105.142 55.14 104.675 55.14C104.202 55.14 103.792 55.0333 103.445 54.82C103.099 54.6 102.832 54.2967 102.645 53.91C102.465 53.5167 102.375 53.0633 102.375 52.55C102.375 51.97 102.469 51.4667 102.655 51.04C102.842 50.6133 103.105 50.2867 103.445 50.06C103.785 49.8267 104.182 49.71 104.635 49.71C105.235 49.71 105.695 49.8933 106.015 50.26C106.342 50.62 106.505 51.17 106.505 51.91H103.375C103.355 52.0967 103.345 52.31 103.345 52.55C103.345 52.99 103.415 53.3733 103.555 53.7C103.702 54.0267 103.892 54.28 104.125 54.46C104.365 54.6333 104.615 54.72 104.875 54.72C105.195 54.72 105.479 54.6433 105.725 54.49C105.972 54.3367 106.179 54.08 106.345 53.72L106.545 53.8ZM104.595 49.9C104.282 49.9 104.012 50.0533 103.785 50.36C103.559 50.6667 103.419 51.12 103.365 51.72H105.545C105.559 51.2 105.482 50.7667 105.315 50.42C105.155 50.0733 104.915 49.9 104.595 49.9ZM111.174 49.71C111.441 49.71 111.657 49.7867 111.824 49.94C111.997 50.0933 112.084 50.28 112.084 50.5C112.084 50.6733 112.031 50.8233 111.924 50.95C111.824 51.07 111.687 51.13 111.514 51.13C111.367 51.13 111.241 51.0833 111.134 50.99C111.034 50.8967 110.984 50.77 110.984 50.61C110.984 50.39 111.097 50.21 111.324 50.07C111.277 50.0033 111.207 49.97 111.114 49.97C110.854 49.97 110.617 50.0733 110.404 50.28C110.191 50.48 110.024 50.7267 109.904 51.02C109.784 51.3133 109.724 51.59 109.724 51.85V53.97C109.724 54.2767 109.811 54.49 109.984 54.61C110.164 54.73 110.431 54.79 110.784 54.79V55L110.544 54.99C109.864 54.97 109.431 54.96 109.244 54.96C109.071 54.96 108.677 54.9733 108.064 55V54.79C108.344 54.79 108.541 54.74 108.654 54.64C108.767 54.5333 108.824 54.3433 108.824 54.07V50.94C108.824 50.6333 108.767 50.41 108.654 50.27C108.541 50.13 108.344 50.06 108.064 50.06V49.85C108.277 49.87 108.484 49.88 108.684 49.88C109.104 49.88 109.451 49.8333 109.724 49.74V50.99C109.844 50.6567 110.034 50.36 110.294 50.1C110.561 49.84 110.854 49.71 111.174 49.71ZM115.107 49.71C115.347 49.71 115.56 49.7467 115.747 49.82C115.934 49.8933 116.084 49.98 116.197 50.08C116.27 50.1333 116.33 50.16 116.377 50.16C116.497 50.16 116.57 50.0133 116.597 49.72H116.827C116.8 50.0467 116.787 50.6133 116.787 51.42H116.557C116.484 50.98 116.34 50.6167 116.127 50.33C115.92 50.0433 115.61 49.9 115.197 49.9C114.957 49.9 114.76 49.97 114.607 50.11C114.454 50.2433 114.377 50.43 114.377 50.67C114.377 50.9033 114.457 51.1 114.617 51.26C114.777 51.4133 115.034 51.6 115.387 51.82C115.447 51.8533 115.537 51.91 115.657 51.99C115.964 52.19 116.21 52.3667 116.397 52.52C116.584 52.6733 116.734 52.85 116.847 53.05C116.967 53.25 117.027 53.48 117.027 53.74C117.027 54.18 116.86 54.5233 116.527 54.77C116.2 55.0167 115.797 55.14 115.317 55.14C115.017 55.14 114.754 55.0933 114.527 55C114.38 54.9267 114.244 54.8367 114.117 54.73C114.09 54.7033 114.06 54.69 114.027 54.69C113.98 54.69 113.937 54.7233 113.897 54.79C113.864 54.8567 113.837 54.95 113.817 55.07H113.587C113.614 54.69 113.627 54.0233 113.627 53.07H113.857C113.93 53.6967 114.064 54.1667 114.257 54.48C114.45 54.7867 114.78 54.94 115.247 54.94C115.48 54.94 115.687 54.8633 115.867 54.71C116.047 54.5567 116.137 54.3167 116.137 53.99C116.137 53.73 116.047 53.51 115.867 53.33C115.694 53.15 115.407 52.9333 115.007 52.68C114.68 52.4733 114.427 52.3033 114.247 52.17C114.074 52.0367 113.927 51.8733 113.807 51.68C113.687 51.4867 113.627 51.26 113.627 51C113.627 50.58 113.767 50.26 114.047 50.04C114.327 49.82 114.68 49.71 115.107 49.71ZM121.04 49.71C121.72 49.71 122.266 49.9367 122.68 50.39C123.1 50.8367 123.31 51.5167 123.31 52.43C123.31 53.3433 123.1 54.0233 122.68 54.47C122.266 54.9167 121.72 55.14 121.04 55.14C120.36 55.14 119.81 54.9167 119.39 54.47C118.976 54.0233 118.77 53.3433 118.77 52.43C118.77 51.5167 118.976 50.8367 119.39 50.39C119.81 49.9367 120.36 49.71 121.04 49.71ZM121.04 49.91C120.64 49.91 120.323 50.1167 120.09 50.53C119.856 50.9367 119.74 51.57 119.74 52.43C119.74 53.29 119.856 53.9233 120.09 54.33C120.323 54.7367 120.64 54.94 121.04 54.94C121.44 54.94 121.756 54.7367 121.99 54.33C122.223 53.9233 122.34 53.29 122.34 52.43C122.34 51.57 122.223 50.9367 121.99 50.53C121.756 50.1167 121.44 49.91 121.04 49.91ZM128.228 49.71C128.695 49.71 129.048 49.8367 129.288 50.09C129.415 50.2233 129.505 50.39 129.558 50.59C129.612 50.79 129.638 51.06 129.638 51.4V54.07C129.638 54.3433 129.695 54.5333 129.808 54.64C129.922 54.74 130.118 54.79 130.398 54.79V55C129.785 54.9733 129.385 54.96 129.198 54.96C129.012 54.96 128.638 54.9733 128.078 55V54.79C128.325 54.79 128.495 54.74 128.588 54.64C128.688 54.5333 128.738 54.3433 128.738 54.07V51.18C128.738 50.8067 128.685 50.5233 128.578 50.33C128.472 50.13 128.255 50.03 127.928 50.03C127.655 50.03 127.412 50.11 127.198 50.27C126.985 50.43 126.818 50.65 126.698 50.93C126.585 51.2033 126.528 51.51 126.528 51.85V54.07C126.528 54.3433 126.575 54.5333 126.668 54.64C126.768 54.74 126.942 54.79 127.188 54.79V55C126.628 54.9733 126.255 54.96 126.068 54.96C125.882 54.96 125.482 54.9733 124.868 55V54.79C125.148 54.79 125.345 54.74 125.458 54.64C125.572 54.5333 125.628 54.3433 125.628 54.07V50.94C125.628 50.6333 125.572 50.41 125.458 50.27C125.345 50.13 125.148 50.06 124.868 50.06V49.85C125.082 49.87 125.288 49.88 125.488 49.88C125.908 49.88 126.255 49.8333 126.528 49.74V50.92C126.695 50.4933 126.925 50.1867 127.218 50C127.518 49.8067 127.855 49.71 128.228 49.71ZM132.975 55.07C132.555 55.07 132.242 54.9667 132.035 54.76C131.835 54.5467 131.735 54.2533 131.735 53.88C131.735 53.58 131.815 53.3333 131.975 53.14C132.142 52.9467 132.335 52.7933 132.555 52.68C132.782 52.5667 133.078 52.4467 133.445 52.32C133.818 52.1933 134.095 52.0767 134.275 51.97C134.455 51.8633 134.545 51.72 134.545 51.54V50.92C134.545 50.5333 134.462 50.27 134.295 50.13C134.135 49.9833 133.908 49.91 133.615 49.91C133.148 49.91 132.818 50.03 132.625 50.27C132.758 50.3033 132.868 50.3733 132.955 50.48C133.048 50.5867 133.095 50.72 133.095 50.88C133.095 51.0467 133.042 51.18 132.935 51.28C132.828 51.3733 132.692 51.42 132.525 51.42C132.338 51.42 132.198 51.3633 132.105 51.25C132.012 51.13 131.965 50.9867 131.965 50.82C131.965 50.66 132.002 50.5267 132.075 50.42C132.155 50.3133 132.272 50.2067 132.425 50.1C132.585 49.9867 132.788 49.8933 133.035 49.82C133.282 49.7467 133.552 49.71 133.845 49.71C134.365 49.71 134.758 49.8333 135.025 50.08C135.192 50.2333 135.302 50.42 135.355 50.64C135.415 50.8533 135.445 51.1367 135.445 51.49V54.27C135.445 54.4367 135.468 54.5567 135.515 54.63C135.562 54.7033 135.642 54.74 135.755 54.74C135.835 54.74 135.908 54.7233 135.975 54.69C136.048 54.65 136.125 54.5967 136.205 54.53L136.315 54.7C136.142 54.8333 135.992 54.93 135.865 54.99C135.745 55.0433 135.592 55.07 135.405 55.07C135.085 55.07 134.862 54.99 134.735 54.83C134.608 54.67 134.545 54.4533 134.545 54.18C134.345 54.5133 134.115 54.7467 133.855 54.88C133.595 55.0067 133.302 55.07 132.975 55.07ZM133.415 54.67C133.855 54.67 134.232 54.4167 134.545 53.91V51.95C134.485 52.0433 134.402 52.12 134.295 52.18C134.188 52.24 134.025 52.32 133.805 52.42C133.552 52.5267 133.345 52.63 133.185 52.73C133.032 52.8233 132.898 52.9533 132.785 53.12C132.672 53.2867 132.615 53.5 132.615 53.76C132.615 54.06 132.688 54.2867 132.835 54.44C132.982 54.5933 133.175 54.67 133.415 54.67ZM139.006 54.07C139.006 54.3433 139.062 54.5333 139.176 54.64C139.289 54.74 139.486 54.79 139.766 54.79V55C139.152 54.9733 138.749 54.96 138.556 54.96C138.362 54.96 137.959 54.9733 137.346 55V54.79C137.626 54.79 137.822 54.74 137.936 54.64C138.049 54.5333 138.106 54.3433 138.106 54.07V48.36C138.106 48.0533 138.049 47.83 137.936 47.69C137.822 47.55 137.626 47.48 137.346 47.48V47.27C137.552 47.29 137.759 47.3 137.966 47.3C138.386 47.3 138.732 47.2533 139.006 47.16V54.07ZM146.157 49.71C146.397 49.71 146.61 49.7467 146.797 49.82C146.984 49.8933 147.134 49.98 147.247 50.08C147.32 50.1333 147.38 50.16 147.427 50.16C147.547 50.16 147.62 50.0133 147.647 49.72H147.877C147.85 50.0467 147.837 50.6133 147.837 51.42H147.607C147.534 50.98 147.39 50.6167 147.177 50.33C146.97 50.0433 146.66 49.9 146.247 49.9C146.007 49.9 145.81 49.97 145.657 50.11C145.504 50.2433 145.427 50.43 145.427 50.67C145.427 50.9033 145.507 51.1 145.667 51.26C145.827 51.4133 146.084 51.6 146.437 51.82C146.497 51.8533 146.587 51.91 146.707 51.99C147.014 52.19 147.26 52.3667 147.447 52.52C147.634 52.6733 147.784 52.85 147.897 53.05C148.017 53.25 148.077 53.48 148.077 53.74C148.077 54.18 147.91 54.5233 147.577 54.77C147.25 55.0167 146.847 55.14 146.367 55.14C146.067 55.14 145.804 55.0933 145.577 55C145.43 54.9267 145.294 54.8367 145.167 54.73C145.14 54.7033 145.11 54.69 145.077 54.69C145.03 54.69 144.987 54.7233 144.947 54.79C144.914 54.8567 144.887 54.95 144.867 55.07H144.637C144.664 54.69 144.677 54.0233 144.677 53.07H144.907C144.98 53.6967 145.114 54.1667 145.307 54.48C145.5 54.7867 145.83 54.94 146.297 54.94C146.53 54.94 146.737 54.8633 146.917 54.71C147.097 54.5567 147.187 54.3167 147.187 53.99C147.187 53.73 147.097 53.51 146.917 53.33C146.744 53.15 146.457 52.9333 146.057 52.68C145.73 52.4733 145.477 52.3033 145.297 52.17C145.124 52.0367 144.977 51.8733 144.857 51.68C144.737 51.4867 144.677 51.26 144.677 51C144.677 50.58 144.817 50.26 145.097 50.04C145.377 49.82 145.73 49.71 146.157 49.71ZM151.25 49.86H152.73V50.06H151.25V53.93C151.25 54.23 151.303 54.4467 151.41 54.58C151.523 54.7133 151.683 54.78 151.89 54.78C152.096 54.78 152.273 54.6967 152.42 54.53C152.566 54.3633 152.69 54.09 152.79 53.71L152.99 53.76C152.823 54.68 152.39 55.14 151.69 55.14C151.463 55.14 151.276 55.1133 151.13 55.06C150.983 55.0067 150.853 54.9233 150.74 54.81C150.593 54.6633 150.49 54.4833 150.43 54.27C150.376 54.0567 150.35 53.77 150.35 53.41V50.06H149.39V49.86H150.35V48.33C150.723 48.3167 151.023 48.27 151.25 48.19V49.86ZM157.865 49.88C158.158 49.88 158.412 49.87 158.625 49.85V50.05C158.492 50.0633 158.372 50.1233 158.265 50.23C158.165 50.3367 158.068 50.51 157.975 50.75L156.335 55.05L155.995 55.92C155.868 56.2467 155.725 56.48 155.565 56.62C155.465 56.7133 155.345 56.78 155.205 56.82C155.065 56.86 154.925 56.88 154.785 56.88C154.585 56.88 154.422 56.8267 154.295 56.72C154.168 56.6133 154.105 56.4667 154.105 56.28C154.105 56.12 154.152 55.99 154.245 55.89C154.338 55.7967 154.468 55.75 154.635 55.75C154.782 55.75 154.902 55.79 154.995 55.87C155.095 55.9567 155.145 56.0733 155.145 56.22C155.145 56.42 155.055 56.57 154.875 56.67C154.888 56.6767 154.908 56.68 154.935 56.68C155.302 56.68 155.585 56.42 155.785 55.9L156.135 54.99L154.325 50.62C154.212 50.3933 154.098 50.2433 153.985 50.17C153.872 50.0967 153.758 50.06 153.645 50.06V49.85C153.932 49.89 154.258 49.91 154.625 49.91C154.958 49.91 155.392 49.89 155.925 49.85V50.06C155.685 50.06 155.508 50.08 155.395 50.12C155.288 50.16 155.235 50.2567 155.235 50.41C155.235 50.55 155.275 50.7133 155.355 50.9L156.555 53.88L157.665 50.99C157.738 50.79 157.775 50.6367 157.775 50.53C157.775 50.3767 157.715 50.2633 157.595 50.19C157.475 50.1167 157.285 50.07 157.025 50.05V49.85C157.378 49.87 157.658 49.88 157.865 49.88ZM161.15 54.07C161.15 54.3433 161.207 54.5333 161.32 54.64C161.433 54.74 161.63 54.79 161.91 54.79V55C161.297 54.9733 160.893 54.96 160.7 54.96C160.507 54.96 160.103 54.9733 159.49 55V54.79C159.77 54.79 159.967 54.74 160.08 54.64C160.193 54.5333 160.25 54.3433 160.25 54.07V48.36C160.25 48.0533 160.193 47.83 160.08 47.69C159.967 47.55 159.77 47.48 159.49 47.48V47.27C159.697 47.29 159.903 47.3 160.11 47.3C160.53 47.3 160.877 47.2533 161.15 47.16V54.07ZM164.361 47.35C164.535 47.35 164.685 47.4133 164.811 47.54C164.938 47.6667 165.001 47.8167 165.001 47.99C165.001 48.1633 164.938 48.3133 164.811 48.44C164.685 48.5667 164.535 48.63 164.361 48.63C164.188 48.63 164.038 48.5667 163.911 48.44C163.785 48.3133 163.721 48.1633 163.721 47.99C163.721 47.8167 163.785 47.6667 163.911 47.54C164.038 47.4133 164.188 47.35 164.361 47.35ZM164.881 54.07C164.881 54.3433 164.938 54.5333 165.051 54.64C165.165 54.74 165.361 54.79 165.641 54.79V55C165.028 54.9733 164.625 54.96 164.431 54.96C164.238 54.96 163.835 54.9733 163.221 55V54.79C163.501 54.79 163.698 54.74 163.811 54.64C163.925 54.5333 163.981 54.3433 163.981 54.07V50.94C163.981 50.6333 163.925 50.41 163.811 50.27C163.698 50.13 163.501 50.06 163.221 50.06V49.85C163.435 49.87 163.641 49.88 163.841 49.88C164.261 49.88 164.608 49.8333 164.881 49.74V54.07ZM168.741 49.71C168.981 49.71 169.194 49.7467 169.381 49.82C169.568 49.8933 169.718 49.98 169.831 50.08C169.904 50.1333 169.964 50.16 170.011 50.16C170.131 50.16 170.204 50.0133 170.231 49.72H170.461C170.434 50.0467 170.421 50.6133 170.421 51.42H170.191C170.118 50.98 169.974 50.6167 169.761 50.33C169.554 50.0433 169.244 49.9 168.831 49.9C168.591 49.9 168.394 49.97 168.241 50.11C168.088 50.2433 168.011 50.43 168.011 50.67C168.011 50.9033 168.091 51.1 168.251 51.26C168.411 51.4133 168.668 51.6 169.021 51.82C169.081 51.8533 169.171 51.91 169.291 51.99C169.598 52.19 169.844 52.3667 170.031 52.52C170.218 52.6733 170.368 52.85 170.481 53.05C170.601 53.25 170.661 53.48 170.661 53.74C170.661 54.18 170.494 54.5233 170.161 54.77C169.834 55.0167 169.431 55.14 168.951 55.14C168.651 55.14 168.388 55.0933 168.161 55C168.014 54.9267 167.878 54.8367 167.751 54.73C167.724 54.7033 167.694 54.69 167.661 54.69C167.614 54.69 167.571 54.7233 167.531 54.79C167.498 54.8567 167.471 54.95 167.451 55.07H167.221C167.248 54.69 167.261 54.0233 167.261 53.07H167.491C167.564 53.6967 167.698 54.1667 167.891 54.48C168.084 54.7867 168.414 54.94 168.881 54.94C169.114 54.94 169.321 54.8633 169.501 54.71C169.681 54.5567 169.771 54.3167 169.771 53.99C169.771 53.73 169.681 53.51 169.501 53.33C169.328 53.15 169.041 52.9333 168.641 52.68C168.314 52.4733 168.061 52.3033 167.881 52.17C167.708 52.0367 167.561 51.8733 167.441 51.68C167.321 51.4867 167.261 51.26 167.261 51C167.261 50.58 167.401 50.26 167.681 50.04C167.961 49.82 168.314 49.71 168.741 49.71ZM173.834 49.86H175.314V50.06H173.834V53.93C173.834 54.23 173.887 54.4467 173.994 54.58C174.107 54.7133 174.267 54.78 174.474 54.78C174.68 54.78 174.857 54.6967 175.004 54.53C175.15 54.3633 175.274 54.09 175.374 53.71L175.574 53.76C175.407 54.68 174.974 55.14 174.274 55.14C174.047 55.14 173.86 55.1133 173.714 55.06C173.567 55.0067 173.437 54.9233 173.324 54.81C173.177 54.6633 173.074 54.4833 173.014 54.27C172.96 54.0567 172.934 53.77 172.934 53.41V50.06H171.974V49.86H172.934V48.33C173.307 48.3167 173.607 48.27 173.834 48.19V49.86Z" fill="white"/>
<line x1="44" y1="17.5" x2="24" y2="17.5" stroke="#FEFEFE"/>
<line x1="24.5" y1="17" x2="24.5" y2="39.8571" stroke="#FEFEFE"/>
<line x1="225" y1="62.3572" x2="245" y2="62.3572" stroke="#FEFEFE"/>
<line x1="244.5" y1="62.8572" x2="244.5" y2="40" stroke="#FEFEFE"/>
</svg>
